<svg width="885" height="559" viewBox="0 0 885 559" fill="none" xmlns="http://www.w3.org/2000/svg">
<rect x="1" y="494" width="883" height="64" rx="6" stroke="white" stroke-width="2"/>
<path d="M88.1503 414.5C86.9784 410.913 85.4337 407.7 83.5161 404.859C81.634 401.982 79.379 399.532 76.7512 397.508C74.1588 395.484 71.2114 393.939 67.9088 392.874C64.6063 391.808 60.9841 391.276 57.0423 391.276C50.5793 391.276 44.7022 392.945 39.411 396.283C34.1198 399.621 29.9117 404.539 26.7867 411.038C23.6617 417.536 22.0992 425.509 22.0992 434.955C22.0992 444.401 23.6794 452.373 26.8399 458.871C30.0004 465.37 34.2796 470.288 39.6773 473.626C45.075 476.964 51.1475 478.634 57.8946 478.634C64.1446 478.634 69.6489 477.302 74.4074 474.638C79.2014 471.94 82.9301 468.14 85.5935 463.239C88.2924 458.303 89.6418 452.497 89.6418 445.821L93.6901 446.673H60.8776V434.955H102.426V446.673C102.426 455.658 100.508 463.47 96.673 470.111C92.8733 476.751 87.6176 481.901 80.906 485.558C74.2298 489.18 66.5594 490.991 57.8946 490.991C48.2355 490.991 39.7483 488.719 32.433 484.173C25.1531 479.628 19.4713 473.165 15.3875 464.784C11.3392 456.403 9.31507 446.46 9.31507 434.955C9.31507 426.325 10.4692 418.566 12.7774 411.677C15.1212 404.752 18.4237 398.857 22.6851 393.992C26.9465 389.127 31.9891 385.398 37.8129 382.806C43.6368 380.214 50.0466 378.918 57.0423 378.918C62.7952 378.918 68.1574 379.788 73.129 381.528C78.1361 383.232 82.5928 385.665 86.499 388.825C90.4408 391.95 93.7256 395.697 96.3534 400.065C98.9813 404.397 100.792 409.209 101.787 414.5H88.1503ZM141.918 440.281V489.5H129.347V380.409H141.918V420.466H142.983C144.9 416.24 147.777 412.884 151.612 410.398C155.483 407.877 160.632 406.616 167.06 406.616C172.635 406.616 177.518 407.735 181.708 409.972C185.898 412.174 189.148 415.565 191.456 420.146C193.8 424.692 194.972 430.48 194.972 437.511V489.5H182.4V438.364C182.4 431.865 180.714 426.84 177.34 423.289C174.002 419.702 169.368 417.909 163.437 417.909C159.318 417.909 155.625 418.779 152.358 420.519C149.126 422.259 146.57 424.798 144.687 428.136C142.841 431.474 141.918 435.523 141.918 440.281ZM248.046 491.418C242.862 491.418 238.156 490.441 233.93 488.488C229.705 486.499 226.349 483.641 223.863 479.912C221.377 476.148 220.134 471.602 220.134 466.276C220.134 461.588 221.058 457.788 222.904 454.876C224.751 451.929 227.219 449.621 230.308 447.952C233.398 446.283 236.807 445.04 240.536 444.223C244.3 443.371 248.082 442.696 251.881 442.199C256.853 441.56 260.884 441.08 263.973 440.761C267.098 440.406 269.371 439.82 270.791 439.003C272.247 438.186 272.975 436.766 272.975 434.741V434.315C272.975 429.06 271.537 424.976 268.661 422.064C265.82 419.152 261.505 417.696 255.717 417.696C249.715 417.696 245.01 419.01 241.601 421.638C238.192 424.266 235.795 427.071 234.41 430.054L222.478 425.793C224.609 420.821 227.45 416.95 231.001 414.18C234.587 411.375 238.494 409.422 242.72 408.321C246.981 407.185 251.171 406.616 255.291 406.616C257.918 406.616 260.937 406.936 264.346 407.575C267.791 408.179 271.111 409.44 274.307 411.357C277.538 413.275 280.22 416.169 282.35 420.04C284.481 423.911 285.546 429.095 285.546 435.594V489.5H272.975V478.42H272.336C271.484 480.196 270.063 482.096 268.075 484.12C266.086 486.144 263.44 487.866 260.138 489.287C256.835 490.707 252.805 491.418 248.046 491.418ZM249.964 480.125C254.935 480.125 259.126 479.148 262.535 477.195C265.979 475.242 268.572 472.721 270.312 469.631C272.087 466.542 272.975 463.293 272.975 459.884V448.378C272.443 449.017 271.271 449.603 269.46 450.136C267.684 450.633 265.624 451.077 263.281 451.467C260.972 451.822 258.717 452.142 256.516 452.426C254.35 452.675 252.592 452.888 251.242 453.065C247.975 453.491 244.921 454.184 242.08 455.143C239.275 456.066 237.002 457.469 235.262 459.351C233.558 461.197 232.705 463.719 232.705 466.915C232.705 471.283 234.321 474.585 237.553 476.822C240.82 479.024 244.957 480.125 249.964 480.125ZM314.491 489.5V407.682H326.636V420.04H327.488C328.98 415.991 331.679 412.707 335.585 410.185C339.491 407.664 343.894 406.403 348.795 406.403C349.718 406.403 350.872 406.421 352.257 406.457C353.642 406.492 354.69 406.545 355.4 406.616V419.401C354.974 419.294 353.997 419.134 352.47 418.921C350.979 418.673 349.399 418.548 347.73 418.548C343.752 418.548 340.201 419.383 337.076 421.052C333.987 422.685 331.536 424.958 329.725 427.87C327.95 430.746 327.062 434.031 327.062 437.724V489.5H314.491ZM459.858 489.5H426.194V380.409H461.35C471.932 380.409 480.988 382.593 488.516 386.961C496.044 391.293 501.815 397.526 505.828 405.658C509.841 413.754 511.847 423.449 511.847 434.741C511.847 446.105 509.823 455.888 505.775 464.092C501.726 472.259 495.831 478.545 488.09 482.948C480.348 487.316 470.938 489.5 459.858 489.5ZM439.404 477.781H459.006C468.026 477.781 475.501 476.041 481.432 472.561C487.362 469.081 491.783 464.127 494.695 457.7C497.607 451.272 499.063 443.619 499.063 434.741C499.063 425.935 497.625 418.353 494.748 411.996C491.872 405.604 487.575 400.704 481.858 397.295C476.14 393.85 469.02 392.128 460.498 392.128H439.404V477.781ZM550.873 440.281V489.5H538.302V380.409H550.873V420.466H551.938C553.856 416.24 556.732 412.884 560.567 410.398C564.438 407.877 569.587 406.616 576.015 406.616C581.59 406.616 586.473 407.735 590.663 409.972C594.853 412.174 598.103 415.565 600.411 420.146C602.755 424.692 603.927 430.48 603.927 437.511V489.5H591.356V438.364C591.356 431.865 589.669 426.84 586.295 423.289C582.957 419.702 578.323 417.909 572.392 417.909C568.273 417.909 564.58 418.779 561.313 420.519C558.081 422.259 555.525 424.798 553.642 428.136C551.796 431.474 550.873 435.523 550.873 440.281ZM657.001 491.418C651.817 491.418 647.111 490.441 642.886 488.488C638.66 486.499 635.304 483.641 632.818 479.912C630.332 476.148 629.089 471.602 629.089 466.276C629.089 461.588 630.013 457.788 631.859 454.876C633.706 451.929 636.174 449.621 639.263 447.952C642.353 446.283 645.762 445.04 649.491 444.223C653.255 443.371 657.037 442.696 660.837 442.199C665.808 441.56 669.839 441.08 672.928 440.761C676.053 440.406 678.326 439.82 679.746 439.003C681.202 438.186 681.93 436.766 681.93 434.741V434.315C681.93 429.06 680.492 424.976 677.616 422.064C674.775 419.152 670.46 417.696 664.672 417.696C658.67 417.696 653.965 419.01 650.556 421.638C647.147 424.266 644.75 427.071 643.365 430.054L631.433 425.793C633.564 420.821 636.405 416.95 639.956 414.18C643.543 411.375 647.449 409.422 651.675 408.321C655.936 407.185 660.126 406.616 664.246 406.616C666.873 406.616 669.892 406.936 673.301 407.575C676.746 408.179 680.066 409.44 683.262 411.357C686.494 413.275 689.175 416.169 691.305 420.04C693.436 423.911 694.501 429.095 694.501 435.594V489.5H681.93V478.42H681.291C680.439 480.196 679.018 482.096 677.03 484.12C675.041 486.144 672.396 487.866 669.093 489.287C665.79 490.707 661.76 491.418 657.001 491.418ZM658.919 480.125C663.891 480.125 668.081 479.148 671.49 477.195C674.935 475.242 677.527 472.721 679.267 469.631C681.043 466.542 681.93 463.293 681.93 459.884V448.378C681.398 449.017 680.226 449.603 678.415 450.136C676.639 450.633 674.579 451.077 672.236 451.467C669.927 451.822 667.672 452.142 665.471 452.426C663.305 452.675 661.547 452.888 660.197 453.065C656.93 453.491 653.876 454.184 651.035 455.143C648.23 456.066 645.957 457.469 644.217 459.351C642.513 461.197 641.66 463.719 641.66 466.915C641.66 471.283 643.276 474.585 646.508 476.822C649.775 479.024 653.912 480.125 658.919 480.125ZM723.446 489.5V407.682H736.017V489.5H723.446ZM729.838 394.045C727.388 394.045 725.275 393.211 723.499 391.542C721.759 389.873 720.889 387.866 720.889 385.523C720.889 383.179 721.759 381.173 723.499 379.504C725.275 377.835 727.388 377 729.838 377C732.288 377 734.384 377.835 736.124 379.504C737.899 381.173 738.787 383.179 738.787 385.523C738.787 387.866 737.899 389.873 736.124 391.542C734.384 393.211 732.288 394.045 729.838 394.045ZM777.613 380.409V489.5H765.042V380.409H777.613ZM839.876 491.205C832.49 491.205 826.009 489.447 820.434 485.931C814.894 482.415 810.562 477.497 807.437 471.176C804.347 464.855 802.802 457.469 802.802 449.017C802.802 440.494 804.347 433.055 807.437 426.698C810.562 420.342 814.894 415.406 820.434 411.89C826.009 408.374 832.49 406.616 839.876 406.616C847.263 406.616 853.726 408.374 859.265 411.89C864.841 415.406 869.173 420.342 872.263 426.698C875.388 433.055 876.95 440.494 876.95 449.017C876.95 457.469 875.388 464.855 872.263 471.176C869.173 477.497 864.841 482.415 859.265 485.931C853.726 489.447 847.263 491.205 839.876 491.205ZM839.876 479.912C845.487 479.912 850.103 478.474 853.726 475.597C857.348 472.721 860.029 468.939 861.769 464.251C863.509 459.564 864.379 454.486 864.379 449.017C864.379 443.548 863.509 438.452 861.769 433.729C860.029 429.006 857.348 425.189 853.726 422.277C850.103 419.365 845.487 417.909 839.876 417.909C834.265 417.909 829.649 419.365 826.027 422.277C822.405 425.189 819.723 429.006 817.983 433.729C816.243 438.452 815.373 443.548 815.373 449.017C815.373 454.486 816.243 459.564 817.983 464.251C819.723 468.939 822.405 472.721 826.027 475.597C829.649 478.474 834.265 479.912 839.876 479.912Z" fill="white"/>
<path d="M28.2003 540.5H24.5071L35.1889 511.409H38.8253L49.5071 540.5H45.8139L37.1207 516.011H36.8935L28.2003 540.5ZM29.5639 529.136H44.4503V532.261H29.5639V529.136Z" fill="white"/>
<path d="M77.0998 514.534V511.409H98.918V514.534H89.7702V540.5H86.2475V514.534H77.0998Z" fill="white"/>
<path d="M160.222 511.409H164.256L172.324 524.989H172.665L180.733 511.409H184.767L174.256 528.511V540.5H170.733V528.511L160.222 511.409Z" fill="white"/>
<path d="M238.334 525.955C238.334 529.023 237.78 531.674 236.672 533.909C235.564 536.144 234.044 537.867 232.112 539.08C230.18 540.292 227.974 540.898 225.493 540.898C223.012 540.898 220.805 540.292 218.874 539.08C216.942 537.867 215.422 536.144 214.314 533.909C213.206 531.674 212.652 529.023 212.652 525.955C212.652 522.886 213.206 520.235 214.314 518C215.422 515.765 216.942 514.042 218.874 512.83C220.805 511.617 223.012 511.011 225.493 511.011C227.974 511.011 230.18 511.617 232.112 512.83C234.044 514.042 235.564 515.765 236.672 518C237.78 520.235 238.334 522.886 238.334 525.955ZM234.925 525.955C234.925 523.436 234.503 521.31 233.661 519.577C232.827 517.844 231.696 516.532 230.266 515.642C228.845 514.752 227.254 514.307 225.493 514.307C223.732 514.307 222.136 514.752 220.706 515.642C219.286 516.532 218.154 517.844 217.311 519.577C216.478 521.31 216.061 523.436 216.061 525.955C216.061 528.473 216.478 530.599 217.311 532.332C218.154 534.065 219.286 535.377 220.706 536.267C222.136 537.157 223.732 537.602 225.493 537.602C227.254 537.602 228.845 537.157 230.266 536.267C231.696 535.377 232.827 534.065 233.661 532.332C234.503 530.599 234.925 528.473 234.925 525.955Z" fill="white"/>
<path d="M287.789 511.409H291.312V530.67C291.312 532.659 290.843 534.435 289.906 535.997C288.978 537.55 287.666 538.777 285.971 539.676C284.276 540.566 282.288 541.011 280.005 541.011C277.723 541.011 275.734 540.566 274.039 539.676C272.344 538.777 271.028 537.55 270.091 535.997C269.163 534.435 268.699 532.659 268.699 530.67V511.409H272.221V530.386C272.221 531.807 272.534 533.071 273.159 534.179C273.784 535.277 274.674 536.144 275.829 536.778C276.994 537.403 278.386 537.716 280.005 537.716C281.625 537.716 283.017 537.403 284.181 536.778C285.346 536.144 286.236 535.277 286.852 534.179C287.477 533.071 287.789 531.807 287.789 530.386V511.409Z" fill="white"/>
<path d="M322.73 540.5V511.409H332.559C334.832 511.409 336.698 511.797 338.156 512.574C339.614 513.341 340.694 514.397 341.395 515.741C342.095 517.086 342.446 518.616 342.446 520.33C342.446 522.044 342.095 523.563 341.395 524.889C340.694 526.215 339.619 527.257 338.17 528.014C336.721 528.762 334.87 529.136 332.616 529.136H324.662V525.955H332.502C334.056 525.955 335.306 525.727 336.252 525.273C337.209 524.818 337.9 524.174 338.326 523.341C338.762 522.498 338.98 521.494 338.98 520.33C338.98 519.165 338.762 518.147 338.326 517.276C337.891 516.404 337.195 515.732 336.238 515.259C335.282 514.776 334.018 514.534 332.446 514.534H326.252V540.5H322.73ZM336.423 527.432L343.582 540.5H339.491L332.446 527.432H336.423Z" fill="white"/>
<path d="M415.625 540.5H406.648V511.409H416.023C418.845 511.409 421.259 511.991 423.267 513.156C425.275 514.312 426.813 515.973 427.884 518.142C428.954 520.301 429.489 522.886 429.489 525.898C429.489 528.928 428.949 531.537 427.869 533.724C426.79 535.902 425.218 537.579 423.153 538.753C421.089 539.918 418.58 540.5 415.625 540.5ZM410.17 537.375H415.398C417.803 537.375 419.796 536.911 421.378 535.983C422.959 535.055 424.138 533.734 424.915 532.02C425.691 530.306 426.08 528.265 426.08 525.898C426.08 523.549 425.696 521.527 424.929 519.832C424.162 518.128 423.016 516.821 421.491 515.912C419.967 514.993 418.068 514.534 415.795 514.534H410.17V537.375Z" fill="white"/>
<path d="M484.334 525.955C484.334 529.023 483.78 531.674 482.672 533.909C481.564 536.144 480.044 537.867 478.112 539.08C476.18 540.292 473.974 540.898 471.493 540.898C469.012 540.898 466.805 540.292 464.874 539.08C462.942 537.867 461.422 536.144 460.314 533.909C459.206 531.674 458.652 529.023 458.652 525.955C458.652 522.886 459.206 520.235 460.314 518C461.422 515.765 462.942 514.042 464.874 512.83C466.805 511.617 469.012 511.011 471.493 511.011C473.974 511.011 476.18 511.617 478.112 512.83C480.044 514.042 481.564 515.765 482.672 518C483.78 520.235 484.334 522.886 484.334 525.955ZM480.925 525.955C480.925 523.436 480.503 521.31 479.661 519.577C478.827 517.844 477.696 516.532 476.266 515.642C474.845 514.752 473.254 514.307 471.493 514.307C469.732 514.307 468.136 514.752 466.706 515.642C465.286 516.532 464.154 517.844 463.311 519.577C462.478 521.31 462.061 523.436 462.061 525.955C462.061 528.473 462.478 530.599 463.311 532.332C464.154 534.065 465.286 535.377 466.706 536.267C468.136 537.157 469.732 537.602 471.493 537.602C473.254 537.602 474.845 537.157 476.266 536.267C477.696 535.377 478.827 534.065 479.661 532.332C480.503 530.599 480.925 528.473 480.925 525.955Z" fill="white"/>
<path d="M539.334 525.955C539.334 529.023 538.78 531.674 537.672 533.909C536.564 536.144 535.044 537.867 533.112 539.08C531.18 540.292 528.974 540.898 526.493 540.898C524.012 540.898 521.805 540.292 519.874 539.08C517.942 537.867 516.422 536.144 515.314 533.909C514.206 531.674 513.652 529.023 513.652 525.955C513.652 522.886 514.206 520.235 515.314 518C516.422 515.765 517.942 514.042 519.874 512.83C521.805 511.617 524.012 511.011 526.493 511.011C528.974 511.011 531.18 511.617 533.112 512.83C535.044 514.042 536.564 515.765 537.672 518C538.78 520.235 539.334 522.886 539.334 525.955ZM535.925 525.955C535.925 523.436 535.503 521.31 534.661 519.577C533.827 517.844 532.696 516.532 531.266 515.642C529.845 514.752 528.254 514.307 526.493 514.307C524.732 514.307 523.136 514.752 521.706 515.642C520.286 516.532 519.154 517.844 518.311 519.577C517.478 521.31 517.061 523.436 517.061 525.955C517.061 528.473 517.478 530.599 518.311 532.332C519.154 534.065 520.286 535.377 521.706 536.267C523.136 537.157 524.732 537.602 526.493 537.602C528.254 537.602 529.845 537.157 531.266 536.267C532.696 535.377 533.827 534.065 534.661 532.332C535.503 530.599 535.925 528.473 535.925 525.955Z" fill="white"/>
<path d="M569.73 540.5V511.409H579.559C581.832 511.409 583.698 511.797 585.156 512.574C586.614 513.341 587.694 514.397 588.395 515.741C589.095 517.086 589.446 518.616 589.446 520.33C589.446 522.044 589.095 523.563 588.395 524.889C587.694 526.215 586.619 527.257 585.17 528.014C583.721 528.762 581.87 529.136 579.616 529.136H571.662V525.955H579.502C581.056 525.955 582.306 525.727 583.252 525.273C584.209 524.818 584.9 524.174 585.326 523.341C585.762 522.498 585.98 521.494 585.98 520.33C585.98 519.165 585.762 518.147 585.326 517.276C584.891 516.404 584.195 515.732 583.238 515.259C582.282 514.776 581.018 514.534 579.446 514.534H573.252V540.5H569.73ZM583.423 527.432L590.582 540.5H586.491L579.446 527.432H583.423Z" fill="white"/>
<path d="M669.678 518.682C669.507 517.242 668.816 516.125 667.604 515.33C666.392 514.534 664.905 514.136 663.144 514.136C661.856 514.136 660.729 514.345 659.763 514.761C658.807 515.178 658.059 515.751 657.519 516.48C656.989 517.209 656.723 518.038 656.723 518.966C656.723 519.742 656.908 520.41 657.277 520.969C657.656 521.518 658.139 521.977 658.726 522.347C659.313 522.706 659.929 523.005 660.573 523.241C661.217 523.469 661.809 523.653 662.348 523.795L665.303 524.591C666.06 524.79 666.903 525.064 667.831 525.415C668.769 525.765 669.664 526.243 670.516 526.849C671.378 527.446 672.088 528.213 672.647 529.151C673.205 530.088 673.485 531.239 673.485 532.602C673.485 534.174 673.073 535.595 672.249 536.864C671.435 538.133 670.241 539.141 668.669 539.889C667.107 540.637 665.208 541.011 662.973 541.011C660.89 541.011 659.086 540.675 657.561 540.003C656.046 539.33 654.853 538.393 653.982 537.19C653.12 535.988 652.632 534.591 652.519 533H656.155C656.25 534.098 656.619 535.008 657.263 535.727C657.917 536.437 658.74 536.968 659.735 537.318C660.739 537.659 661.818 537.83 662.973 537.83C664.318 537.83 665.525 537.612 666.596 537.176C667.666 536.731 668.513 536.116 669.138 535.33C669.763 534.534 670.076 533.606 670.076 532.545C670.076 531.58 669.806 530.794 669.266 530.188C668.726 529.581 668.016 529.089 667.135 528.71C666.255 528.331 665.303 528 664.28 527.716L660.701 526.693C658.428 526.04 656.629 525.107 655.303 523.895C653.977 522.683 653.314 521.097 653.314 519.136C653.314 517.508 653.755 516.087 654.635 514.875C655.525 513.653 656.719 512.706 658.215 512.034C659.721 511.352 661.401 511.011 663.257 511.011C665.132 511.011 666.799 511.348 668.257 512.02C669.716 512.683 670.871 513.592 671.723 514.747C672.585 515.902 673.04 517.214 673.087 518.682H669.678Z" fill="white"/>
<path d="M699.1 514.534V511.409H720.918V514.534H711.77V540.5H708.248V514.534H699.1Z" fill="white"/>
<path d="M747.57 540.5V511.409H765.126V514.534H751.092V524.364H764.217V527.489H751.092V537.375H765.354V540.5H747.57Z" fill="white"/>
<path d="M792.827 540.5V511.409H802.657C804.939 511.409 806.805 511.821 808.254 512.645C809.712 513.459 810.791 514.562 811.492 515.955C812.193 517.347 812.543 518.9 812.543 520.614C812.543 522.328 812.193 523.885 811.492 525.287C810.801 526.688 809.731 527.806 808.282 528.639C806.833 529.463 804.977 529.875 802.714 529.875H795.668V526.75H802.6C804.163 526.75 805.417 526.48 806.364 525.94C807.311 525.401 807.998 524.671 808.424 523.753C808.86 522.825 809.077 521.778 809.077 520.614C809.077 519.449 808.86 518.407 808.424 517.489C807.998 516.57 807.307 515.85 806.35 515.33C805.394 514.799 804.125 514.534 802.543 514.534H796.35V540.5H792.827Z" fill="white"/>
<path d="M855.678 518.682C855.507 517.242 854.816 516.125 853.604 515.33C852.392 514.534 850.905 514.136 849.144 514.136C847.856 514.136 846.729 514.345 845.763 514.761C844.807 515.178 844.059 515.751 843.519 516.48C842.989 517.209 842.723 518.038 842.723 518.966C842.723 519.742 842.908 520.41 843.277 520.969C843.656 521.518 844.139 521.977 844.726 522.347C845.313 522.706 845.929 523.005 846.573 523.241C847.217 523.469 847.809 523.653 848.348 523.795L851.303 524.591C852.06 524.79 852.903 525.064 853.831 525.415C854.769 525.765 855.664 526.243 856.516 526.849C857.378 527.446 858.088 528.213 858.647 529.151C859.205 530.088 859.485 531.239 859.485 532.602C859.485 534.174 859.073 535.595 858.249 536.864C857.435 538.133 856.241 539.141 854.669 539.889C853.107 540.637 851.208 541.011 848.973 541.011C846.89 541.011 845.086 540.675 843.561 540.003C842.046 539.33 840.853 538.393 839.982 537.19C839.12 535.988 838.632 534.591 838.519 533H842.155C842.25 534.098 842.619 535.008 843.263 535.727C843.917 536.437 844.74 536.968 845.735 537.318C846.739 537.659 847.818 537.83 848.973 537.83C850.318 537.83 851.525 537.612 852.596 537.176C853.666 536.731 854.513 536.116 855.138 535.33C855.763 534.534 856.076 533.606 856.076 532.545C856.076 531.58 855.806 530.794 855.266 530.188C854.726 529.581 854.016 529.089 853.135 528.71C852.255 528.331 851.303 528 850.28 527.716L846.701 526.693C844.428 526.04 842.629 525.107 841.303 523.895C839.977 522.683 839.314 521.097 839.314 519.136C839.314 517.508 839.755 516.087 840.635 514.875C841.525 513.653 842.719 512.706 844.215 512.034C845.721 511.352 847.401 511.011 849.257 511.011C851.132 511.011 852.799 511.348 854.257 512.02C855.716 512.683 856.871 513.592 857.723 514.747C858.585 515.902 859.04 517.214 859.087 518.682H855.678Z" fill="white"/>
<path d="M260 302.5L259.5 137H279V273H602.5V137H621.5V302.5H260Z" fill="white"/>
<path d="M615.5 24H562L593 125.5H652L615.5 24Z" fill="white"/>
<path d="M514 25.5H467.5L472 126.5H532L514 25.5Z" fill="white"/>
<path d="M412 25H372L354 126H412V25Z" fill="white"/>
<path d="M269 15V0H614.5V15H269Z" fill="white"/>
<path d="M247 333.5V316.5H634V333.5H247Z" fill="white"/>
<path d="M322.5 25H269L234.5 126H295.5L322.5 25Z" fill="white"/>
<path d="M293 133.5C293 139.6 289.892 145.45 284.36 149.763C278.827 154.077 271.324 156.5 263.5 156.5C255.676 156.5 248.173 154.077 242.64 149.763C237.108 145.45 234 139.6 234 133.5L293 133.5Z" fill="white"/>
<path d="M352 133.5C352 139.6 348.892 145.45 343.36 149.763C337.827 154.077 330.324 156.5 322.5 156.5C314.676 156.5 307.173 154.077 301.64 149.763C296.108 145.45 293 139.6 293 133.5L352 133.5Z" fill="white"/>
<path d="M411 133.5C411 139.6 407.892 145.45 402.36 149.763C396.827 154.077 389.324 156.5 381.5 156.5C373.676 156.5 366.173 154.077 360.64 149.763C355.108 145.45 352 139.6 352 133.5L411 133.5Z" fill="white"/>
<path d="M470 133.5C470 139.6 466.892 145.45 461.36 149.763C455.827 154.077 448.324 156.5 440.5 156.5C432.676 156.5 425.173 154.077 419.64 149.763C414.108 145.45 411 139.6 411 133.5L470 133.5Z" fill="white"/>
<path d="M529 133.5C529 139.6 525.892 145.45 520.36 149.763C514.827 154.077 507.324 156.5 499.5 156.5C491.676 156.5 484.173 154.077 478.64 149.763C473.108 145.45 470 139.6 470 133.5L529 133.5Z" fill="white"/>
<path d="M588 133.5C588 139.6 584.892 145.45 579.36 149.763C573.827 154.077 566.324 156.5 558.5 156.5C550.676 156.5 543.173 154.077 537.64 149.763C532.108 145.45 529 139.6 529 133.5L588 133.5Z" fill="white"/>
<path d="M650 133.5C650 139.6 646.734 145.45 640.92 149.763C635.107 154.077 627.222 156.5 619 156.5C610.778 156.5 602.893 154.077 597.08 149.763C591.266 145.45 588 139.6 588 133.5L650 133.5Z" fill="white"/>
<rect x="349" y="189.5" width="8" height="32" rx="4" fill="white"/>
<rect x="411.55" y="232.212" width="97.8518" height="5.18491" rx="2.59245" transform="rotate(-36 411.55 232.212)" fill="white"/>
<rect x="504.55" y="239.212" width="97.8518" height="5.18491" rx="2.59245" transform="rotate(-36 504.55 239.212)" fill="white"/>
<rect x="430" y="254.016" width="25.1547" height="8.38519" rx="4.1926" transform="rotate(-36 430 254.016)" fill="white"/>
<rect x="457" y="234.286" width="25.0387" height="8.38519" rx="4.1926" transform="rotate(-36 457 234.286)" fill="white"/>
<rect x="486" y="212.764" width="24.2681" height="8.38519" rx="4.1926" transform="rotate(-36 486 212.764)" fill="white"/>
<rect x="514" y="192.764" width="24.2681" height="8.38519" rx="4.1926" transform="rotate(-36 514 192.764)" fill="white"/>
<rect x="542" y="172.764" width="15.1611" height="8.38519" rx="4.1926" transform="rotate(-36 542 172.764)" fill="white"/>
<path d="M370 281.5V144H384.5V281.5H370Z" fill="white"/>
</svg>
